<?xml version="1.0" encoding="utf-8"?>
<!-- Generator: Adobe Illustrator 18.1.1, SVG Export Plug-In . SVG Version: 6.00 Build 0)  -->
<svg version="1.1" id="Layer_1" xmlns="http://www.w3.org/2000/svg" xmlns:xlink="http://www.w3.org/1999/xlink" x="0px" y="0px"
	 width="256px" height="256px" viewBox="0 0 256 256" enable-background="new 0 0 256 256" xml:space="preserve">
<g id="Shape">
	<polygon fill="#202020" points="40.2,179.6 40.2,77.7 128.5,26.7 216.8,77.7 216.8,179.6 128.5,230.6 	"/>
	<path fill="#202020" d="M128.5,30.4l85.1,49.1v98.3l-85.1,49.1l-85.1-49.1V79.5L128.5,30.4 M128.5,22.9l-3.2,1.9L40.2,73.9L37,75.8
		v3.7v98.3v3.7l3.2,1.9l85.1,49.1l3.2,1.9l3.2-1.9l85.1-49.1l3.2-1.9v-3.7V79.5v-3.7l-3.2-1.9l-85.1-49.1L128.5,22.9L128.5,22.9z"/>
</g>
<polygon fill="#03589C" points="43.5,79.5 128.5,128.6 43.5,177.7 "/>
<polygon fill="#37A3DC" points="128.5,30.4 213.5,79.5 128.5,128.6 "/>
<polygon fill="#1686C8" points="128.5,128.6 213.5,177.7 128.5,226.8 "/>
<polygon fill="#0777BD" points="128.5,226.8 43.5,177.7 128.5,128.6 "/>
<polygon fill="#41B2E6" points="128.5,128.6 43.5,79.5 128.5,30.4 "/>
<polygon fill="#2897D4" points="213.5,177.7 128.5,128.6 213.5,79.5 "/>
<g>
</g>
<g>
</g>
<g>
</g>
<g>
</g>
<g>
</g>
<g>
</g>
<g>
</g>
<g>
</g>
<g>
</g>
<g>
</g>
<g>
</g>
<g>
</g>
<g>
</g>
<g>
</g>
<g>
</g>
</svg>
