<svg xmlns="http://www.w3.org/2000/svg" id="Isolation_Mode" viewBox="182.5 23.9 360 212">
  <path id="Text_1_" fill="#202020" d="M407.4 112.3c-1.6 1.4-3.3 2.4-5.3 3.1-2 .7-4 1.1-6.1 1.1-1.6 0-3.2-.2-4.7-.6-1.5-.4-2.9-1-4.2-1.8-1.3-.8-2.5-1.7-3.6-2.8-1.1-1.1-2-2.3-2.8-3.6-.8-1.3-1.4-2.7-1.8-4.2-.4-1.5-.6-3-.6-4.7s.2-3.2.6-4.7c.4-1.5 1-2.9 1.8-4.2.8-1.3 1.7-2.5 2.8-3.6 1.1-1.1 2.3-2 3.6-2.8 1.3-.8 2.7-1.4 4.2-1.8 1.5-.4 3-.6 4.7-.6 2.1 0 4.1.4 6.1 1.1 2 .7 3.7 1.8 5.3 3.1l-3.6 5.9c-1-1.1-2.2-1.9-3.5-2.5-1.4-.6-2.8-.9-4.3-.9s-2.9.3-4.2.9c-1.3.6-2.5 1.3-3.4 2.3-1 1-1.8 2.1-2.3 3.4-.6 1.3-.9 2.7-.9 4.2s.3 2.9.9 4.2c.6 1.3 1.3 2.4 2.3 3.4 1 1 2.1 1.8 3.4 2.3 1.3.6 2.7.9 4.2.9s2.9-.3 4.3-.9c1.4-.6 2.5-1.4 3.5-2.5l3.6 6.3zm24 .8c-.5.5-1.1.9-1.7 1.3-.6.4-1.2.8-1.9 1.1-.6.3-1.3.6-2 .7-.7.2-1.4.3-2.1.3-1.6 0-3-.3-4.4-.8-1.4-.6-2.6-1.3-3.6-2.4-1-1-1.8-2.3-2.4-3.7s-.9-3.1-.9-4.9v-14h6.4v14c0 .9.1 1.6.4 2.3.3.7.6 1.2 1.1 1.7.4.5 1 .8 1.6 1 .6.2 1.2.4 1.9.4s1.3-.2 1.9-.5c.6-.3 1.1-.7 1.6-1.2.4-.5.8-1.1 1-1.7.3-.6.4-1.3.4-2v-14h6.5V116h-1.6l-2.2-2.9zm34.7-10c0 2-.3 3.8-1 5.4-.7 1.6-1.6 3.1-2.8 4.2-1.2 1.2-2.5 2.1-4.1 2.7-1.6.6-3.3 1-5.1 1-1.8 0-3.5-.3-5-1-1.6-.7-2.9-1.6-4.1-2.8-1.2-1.2-2.1-2.6-2.8-4.2-.7-1.6-1-3.4-1-5.4V80.6h6.5v11.8c.3-.4.8-.8 1.3-1.2.5-.3 1-.6 1.6-.9.6-.2 1.2-.4 1.8-.5.6-.1 1.2-.2 1.8-.2 1.8 0 3.5.3 5.1 1 1.6.7 2.9 1.6 4.1 2.8 1.2 1.2 2.1 2.6 2.8 4.3.6 1.7.9 3.5.9 5.4zm-6.5 0c0-1-.2-1.9-.5-2.7-.3-.8-.8-1.6-1.4-2.2-.6-.6-1.3-1.1-2-1.4-.8-.3-1.6-.5-2.5-.5-.9 0-1.7.2-2.5.6-.8.4-1.5.9-2 1.5-.6.6-1 1.4-1.4 2.2-.3.8-.5 1.7-.5 2.6 0 1 .2 1.9.5 2.7.3.8.8 1.6 1.4 2.2.6.6 1.3 1.1 2 1.5.8.4 1.6.5 2.5.5.9 0 1.7-.2 2.5-.5.8-.4 1.5-.8 2-1.5.6-.6 1-1.3 1.4-2.2.3-.9.5-1.8.5-2.8zm18.6 3.2c.1.2.2.5.4.7.1.2.3.4.4.6.4.5.8.9 1.3 1.3.5.3 1 .6 1.6.8.6.2 1.2.3 1.8.3.6 0 1.2-.1 1.8-.2v6.7c-1 .1-2.8 0-3.8-.2s-2-.5-2.9-.9c-.9-.4-1.8-.9-2.6-1.5s-1.6-1.3-2.2-2.2c-1.1-1.4-1.9-2.9-2.4-4.5s-.6-3.3-.4-4.9c.2-1.7.7-3.3 1.5-4.8.8-1.6 2-2.9 3.5-4.2 1.6-1.3 3.2-2.2 4.9-2.7 1.7-.5 3.4-.7 5-.5 1.6.2 3.2.7 4.7 1.5s2.8 1.9 3.9 3.3c.7.8 1.2 1.7 1.7 2.6.4.9.8 1.9 1 2.9.2 1 .3 2 .2 3.1 0 1-.2 2.1-.5 3.1l-18.9-.3zm12.5-5.8c-.1-.3-.2-.6-.4-.8-.2-.2-.3-.5-.5-.7-.6-.7-1.2-1.2-1.9-1.6s-1.5-.6-2.4-.7c-.8-.1-1.7 0-2.5.3-.9.3-1.7.7-2.5 1.4-.2.1-.4.3-.6.5-.2.2-.4.4-.6.7-.2.2-.4.5-.6.7-.2.2-.3.5-.4.7l12.4-.5zm22.2 16h-6.8V89.4h-3.4v-6.8h10.2v33.9zm29.2-23.8c0 1.4-.3 2.7-.8 4-.5 1.2-1.3 2.3-2.2 3.2-.9.9-2 1.7-3.2 2.2-1.2.5-2.5.8-4 .8h-3.4c-.5 0-.9.1-1.3.3-.4.2-.8.4-1.1.7-.3.3-.5.7-.7 1.1-.2.4-.3.9-.3 1.3v3.4h16.1v6.8h-22.9v-10.2c0-1.4.3-2.7.8-4 .5-1.2 1.3-2.3 2.2-3.2.9-.9 2-1.6 3.2-2.2 1.2-.5 2.5-.8 4-.8h3.4c.5 0 .9-.1 1.3-.3.4-.2.8-.4 1.1-.7.3-.3.5-.7.7-1.1.2-.4.3-.9.3-1.3 0-.5-.1-.9-.3-1.3-.2-.4-.4-.8-.7-1.1-.3-.3-.7-.5-1.1-.7-.4-.2-.9-.3-1.3-.3h-12.1v-6.8h12.1c1.4 0 2.7.3 4 .8 1.2.5 2.3 1.3 3.2 2.2.9.9 1.7 2 2.2 3.2.5 1.3.8 2.6.8 4zm-136.4 59.8c0 1.6-.2 3.1-.6 4.5-.4 1.4-1 2.8-1.7 4-.7 1.3-1.6 2.4-2.7 3.4-1 1-2.2 1.9-3.4 2.7-1.3.7-2.6 1.3-4.1 1.7-1.4.4-2.9.6-4.5.6h-10.2v-34h10.2c1.6 0 3.1.2 4.5.6 1.4.4 2.8 1 4.1 1.7 1.3.7 2.4 1.6 3.4 2.7 1 1 1.9 2.2 2.7 3.4.7 1.3 1.3 2.6 1.7 4 .4 1.6.6 3.1.6 4.7zm-6.8 0c0-1.4-.3-2.7-.8-4-.5-1.2-1.3-2.3-2.2-3.2-.9-.9-2-1.7-3.2-2.2-1.2-.5-2.6-.8-4-.8h-3.4v20.4h3.4c1.4 0 2.7-.3 4-.8 1.2-.5 2.3-1.3 3.2-2.2.9-.9 1.6-2 2.2-3.2.5-1.3.8-2.6.8-4zm23.2 10.9c.2.1.5.1.7.2h.7c.6 0 1.2-.1 1.8-.3.6-.2 1.1-.4 1.6-.7.5-.3.9-.7 1.3-1.2s.7-1 1-1.5l4.6 4.7c-.6.8-1.3 1.6-2 2.2-.8.7-1.6 1.2-2.5 1.7-.9.5-1.8.8-2.8 1.1-1 .2-2 .4-3 .4-1.7 0-3.4-.3-4.9-1-1.5-.6-2.9-1.6-4-2.7-1.1-1.2-2.1-2.5-2.7-4.1-.7-1.6-1-3.4-1-5.3 0-2 .3-3.8 1-5.4.7-1.6 1.6-3 2.7-4.1 1.1-1.1 2.5-2 4-2.7 1.5-.6 3.2-.9 4.9-.9 1 0 2 .1 3 .4 1 .2 1.9.6 2.8 1.1.9.5 1.7 1 2.5 1.7s1.5 1.4 2 2.3l-11.7 14.1zm3.2-13.1c-.3-.1-.6-.2-.9-.2h-.9c-.9 0-1.7.2-2.4.5-.8.3-1.4.8-2 1.4-.6.6-1 1.3-1.3 2.1s-.5 1.8-.5 2.8v.8c0 .3.1.6.1.9.1.3.1.6.2.9.1.3.2.5.3.7l7.4-9.9zm28 19.1h-14.4v-6.3h14.4c.4 0 .8-.2 1.1-.5.3-.3.5-.7.5-1.1 0-.4-.2-.7-.5-.9-.3-.1-.7-.2-1.1-.2h-6.6c-1.1 0-2.1-.2-3.1-.6-1-.4-1.8-1-2.5-1.7s-1.3-1.6-1.7-2.5c-.4-1-.6-2-.6-3.1s.2-2.1.6-3.1c.4-1 1-1.8 1.7-2.5s1.5-1.3 2.5-1.7c1-.4 2-.6 3.1-.6h12.8v6.3h-12.8c-.4 0-.8.2-1.1.5-.3.3-.5.7-.5 1.1 0 .4.2.8.5 1.1.3.3.7.5 1.1.5h6.6c1.1 0 2.1.2 3.1.5 1 .4 1.8.9 2.5 1.5s1.3 1.4 1.7 2.3c.4.9.6 1.9.6 3s-.2 2.1-.6 3.1c-.4.9-1 1.8-1.7 2.5s-1.5 1.3-2.5 1.7c-1 .5-2 .7-3.1.7zm19.3 0h-6.4v-24.8h6.4v24.8zm.5-29.3l-3.7 2.1-3.6-2.1v-4.2l3.7-2.1 3.6 2.1v4.2zm29.3 26.2c0 1.7-.3 3.4-1 4.9-.7 1.5-1.6 2.9-2.7 4s-2.5 2-4 2.7c-1.5.7-3.2 1-4.9 1h-3.2v-6.3h3.1c1 0 1.8-.1 2.5-.4.7-.3 1.3-.6 1.8-1s.9-.9 1.1-1.5c.3-.6.5-1.2.7-1.8-.2.4-.6.7-1.1 1-.5.3-1 .5-1.5.6-.6.2-1.1.3-1.8.3-.6.1-1.2.1-1.7.1-1.7 0-3.4-.3-4.9-.9-1.5-.6-2.9-1.5-4-2.6s-2.1-2.5-2.7-4.1c-.7-1.6-1-3.4-1-5.5 0-1.9.3-3.6 1-5.2s1.6-3 2.7-4.2c1.1-1.2 2.5-2.1 4-2.8 1.5-.7 3.2-1 4.9-1 .8 0 1.6.1 2.4.3.8.2 1.6.5 2.3.8.7.4 1.4.8 2.1 1.3.7.5 1.3 1 1.9 1.6l2.5-2.9h1.5v21.6zm-6.3-9.5c0-.9-.2-1.7-.5-2.5s-.8-1.5-1.4-2.2c-.6-.6-1.2-1.1-2-1.5-.8-.4-1.6-.6-2.4-.6-.9 0-1.7.1-2.4.4-.8.3-1.4.7-2 1.3-.6.6-1 1.3-1.3 2.1-.3.8-.5 1.8-.5 2.9 0 1 .2 2 .5 2.8.3.8.8 1.5 1.3 2.1.6.6 1.2 1 2 1.4.8.3 1.6.5 2.4.5.9 0 1.7-.2 2.4-.6.8-.4 1.4-.9 2-1.5.6-.6 1-1.3 1.4-2.2.3-.7.5-1.5.5-2.4zm17.6 12.6h-6.3v-24.8h1.5l2.1 2.4c1-.9 2.2-1.6 3.5-2.1 1.3-.5 2.6-.8 4-.8 1.5 0 2.9.3 4.3.9 1.3.6 2.5 1.4 3.5 2.4s1.8 2.2 2.4 3.5c.6 1.4.9 2.8.9 4.3v14.2h-6.3v-14.2c0-.6-.1-1.3-.4-1.8-.2-.6-.6-1.1-1-1.5-.4-.4-.9-.8-1.5-1-.6-.2-1.2-.4-1.8-.4-.7 0-1.3.1-1.9.4-.6.2-1.1.6-1.5 1-.4.4-.8.9-1 1.5-.2.6-.4 1.2-.4 1.8v14.2z"/>
  <g id="Border_1_">
    <path fill="#FFF" d="M186.2 181V79l88.3-51 88.3 51v102l-88.3 50.9z"/>
    <path fill="#202020" d="M274.5 31.7l85.1 49.1v98.3l-85.1 49.1-85.1-49.1V80.8l85.1-49.1m0-7.4l-3.2 1.9-85.1 49.1-3.2 1.9v105.7l3.2 1.9 85.1 49.1 3.2 1.9 3.2-1.9 85.1-49.1 3.2-1.9V77.1l-3.2-1.9-85.1-49.1-3.2-1.8z"/>
  </g>
  <path fill="#03589C" d="M189.5 80.9l85 49.1-85 49.1z"/>
  <path fill="#37A3DC" d="M274.5 31.8l85 49.1-85 49.1z"/>
  <path fill="#1686C8" d="M274.5 130l85 49.1-85 49.1z"/>
  <path fill="#0777BD" d="M274.5 228.2l-85-49.1 85-49.1z"/>
  <path fill="#41B2E6" d="M274.5 130l-85-49.1 85-49.1z"/>
  <path fill="#2897D4" d="M359.5 179.1l-85-49.1 85-49.1z"/>
</svg>
